{
    "asset" : {
        "generator" : "Khronos glTF Blender I/O v1.7.33",
        "version" : "2.0"
    },
    "scene" : 0,
    "scenes" : [
        {
            "name" : "Scene",
            "nodes" : [
                0
            ]
        }
    ],
    "nodes" : [
        {
            "mesh" : 0,
            "name" : "base"
        }
    ],
    "meshes" : [
        {
            "name" : "ImageToStl.com_2021\u1100\u1169\u1103\u1162\u1107\u1161\u11a8\u1106\u116e\u11af\u1100\u116a\u11ab \u1106",
            "primitives" : [
                {
                    "attributes" : {
                        "POSITION" : 0,
                        "NORMAL" : 1
                    },
                    "indices" : 2
                }
            ]
        }
    ],
    "accessors" : [
        {
            "bufferView" : 0,
            "componentType" : 5126,
            "count" : 1552,
            "max" : [
                296.3999938964844,
                74,
                41.400001525878906
            ],
            "min" : [
                -17.399999618530273,
                -7.105426934084528e-15,
                -193.39999389648438
            ],
            "type" : "VEC3"
        },
        {
            "bufferView" : 1,
            "componentType" : 5126,
            "count" : 1552,
            "type" : "VEC3"
        },
        {
            "bufferView" : 2,
            "componentType" : 5123,
            "count" : 3066,
            "type" : "SCALAR"
        }
    ],
    "bufferViews" : [
        {
            "buffer" : 0,
            "byteLength" : 18624,
            "byteOffset" : 0
        },
        {
            "buffer" : 0,
            "byteLength" : 18624,
            "byteOffset" : 18624
        },
        {
            "buffer" : 0,
            "byteLength" : 6132,
            "byteOffset" : 37248
        }
    ],
    "buffers" : [
        {
            "byteLength" : 43380,
            "uri" : "data:application/octet-stream;base64,"
        }
    ]
}
