{
    "asset" : {
        "generator" : "Khronos glTF Blender I/O v1.7.33",
        "version" : "2.0"
    },
    "scene" : 0,
    "scenes" : [
        {
            "name" : "Scene",
            "nodes" : [
                5,
                6,
                7,
                8,
                9,
                10,
                11
            ]
        }
    ],
    "nodes" : [
        {
            "name" : "f_0",
            "translation" : [
                0,
                3,
                0
            ]
        },
        {
            "name" : "f_1",
            "rotation" : [
                0.7071068286895752,
                0.7071068286895752,
                0,
                1.9949604279645428e-07
            ],
            "translation" : [
                0.5,
                2.5,
                0
            ]
        },
        {
            "name" : "f_2",
            "rotation" : [
                -0.5,
                -0.5,
                0.5,
                0.4999999701976776
            ],
            "translation" : [
                0,
                2.5,
                -0.5
            ]
        },
        {
            "name" : "f_3",
            "rotation" : [
                0,
                0,
                0.7071067094802856,
                0.7071068286895752
            ],
            "translation" : [
                -0.5,
                2.5,
                0
            ]
        },
        {
            "name" : "f_4",
            "rotation" : [
                0.5,
                0.5,
                0.5,
                0.4999999701976776
            ],
            "translation" : [
                0,
                2.5,
                0.5
            ]
        },
        {
            "children" : [
                0,
                1,
                2,
                3,
                4
            ],
            "mesh" : 0,
            "name" : "u_head"
        },
        {
            "mesh" : 1,
            "name" : "u_base"
        },
        {
            "mesh" : 2,
            "name" : "Torus"
        },
        {
            "mesh" : 3,
            "name" : "Torus_bottom_001",
            "scale" : [
                0,
                0,
                0
            ]
        },
        {
            "mesh" : 4,
            "name" : "Torus_bottom_002",
            "scale" : [
                0,
                0,
                0
            ]
        },
        {
            "mesh" : 5,
            "name" : "Torus_bottom_003",
            "scale" : [
                0,
                0,
                0
            ]
        },
        {
            "mesh" : 6,
            "name" : "Torus_bottom_004",
            "scale" : [
                0,
                0,
                0
            ]
        }
    ],
    "animations" : [
        {
            "channels" : [
                {
                    "sampler" : 0,
                    "target" : {
                        "node" : 5,
                        "path" : "translation"
                    }
                }
            ],
            "name" : "u_head",
            "samplers" : [
                {
                    "input" : 25,
                    "interpolation" : "LINEAR",
                    "output" : 26
                }
            ]
        },
        {
            "channels" : [
                {
                    "sampler" : 0,
                    "target" : {
                        "node" : 7,
                        "path" : "translation"
                    }
                }
            ],
            "name" : "Torus",
            "samplers" : [
                {
                    "input" : 25,
                    "interpolation" : "LINEAR",
                    "output" : 27
                }
            ]
        },
        {
            "channels" : [
                {
                    "sampler" : 0,
                    "target" : {
                        "node" : 8,
                        "path" : "scale"
                    }
                },
                {
                    "sampler" : 1,
                    "target" : {
                        "node" : 8,
                        "path" : "translation"
                    }
                }
            ],
            "name" : "Torus_bottom_001",
            "samplers" : [
                {
                    "input" : 28,
                    "interpolation" : "LINEAR",
                    "output" : 29
                },
                {
                    "input" : 25,
                    "interpolation" : "LINEAR",
                    "output" : 30
                }
            ]
        },
        {
            "channels" : [
                {
                    "sampler" : 0,
                    "target" : {
                        "node" : 9,
                        "path" : "scale"
                    }
                },
                {
                    "sampler" : 1,
                    "target" : {
                        "node" : 9,
                        "path" : "translation"
                    }
                }
            ],
            "name" : "Torus_bottom_002",
            "samplers" : [
                {
                    "input" : 31,
                    "interpolation" : "LINEAR",
                    "output" : 32
                },
                {
                    "input" : 25,
                    "interpolation" : "LINEAR",
                    "output" : 33
                }
            ]
        },
        {
            "channels" : [
                {
                    "sampler" : 0,
                    "target" : {
                        "node" : 10,
                        "path" : "translation"
                    }
                },
                {
                    "sampler" : 1,
                    "target" : {
                        "node" : 10,
                        "path" : "scale"
                    }
                }
            ],
            "name" : "Torus_bottom_003",
            "samplers" : [
                {
                    "input" : 34,
                    "interpolation" : "LINEAR",
                    "output" : 35
                },
                {
                    "input" : 36,
                    "interpolation" : "LINEAR",
                    "output" : 37
                }
            ]
        },
        {
            "channels" : [
                {
                    "sampler" : 0,
                    "target" : {
                        "node" : 11,
                        "path" : "scale"
                    }
                },
                {
                    "sampler" : 1,
                    "target" : {
                        "node" : 11,
                        "path" : "translation"
                    }
                }
            ],
            "name" : "Torus_bottom_004",
            "samplers" : [
                {
                    "input" : 38,
                    "interpolation" : "LINEAR",
                    "output" : 39
                },
                {
                    "input" : 25,
                    "interpolation" : "LINEAR",
                    "output" : 40
                }
            ]
        }
    ],
    "meshes" : [
        {
            "name" : "Cube.003",
            "primitives" : [
                {
                    "attributes" : {
                        "POSITION" : 0,
                        "NORMAL" : 1,
                        "TEXCOORD_0" : 2
                    },
                    "indices" : 3
                }
            ]
        },
        {
            "name" : "Cube.001",
            "primitives" : [
                {
                    "attributes" : {
                        "POSITION" : 4,
                        "NORMAL" : 5,
                        "TEXCOORD_0" : 6
                    },
                    "indices" : 7
                }
            ]
        },
        {
            "name" : "Torus",
            "primitives" : [
                {
                    "attributes" : {
                        "POSITION" : 8,
                        "NORMAL" : 9,
                        "TEXCOORD_0" : 10
                    },
                    "indices" : 11
                }
            ]
        },
        {
            "name" : "Torus.003",
            "primitives" : [
                {
                    "attributes" : {
                        "POSITION" : 12,
                        "NORMAL" : 13,
                        "TEXCOORD_0" : 14
                    },
                    "indices" : 15
                }
            ]
        },
        {
            "name" : "Torus.004",
            "primitives" : [
                {
                    "attributes" : {
                        "POSITION" : 16,
                        "NORMAL" : 17,
                        "TEXCOORD_0" : 18
                    },
                    "indices" : 15
                }
            ]
        },
        {
            "name" : "Torus.005",
            "primitives" : [
                {
                    "attributes" : {
                        "POSITION" : 19,
                        "NORMAL" : 20,
                        "TEXCOORD_0" : 21
                    },
                    "indices" : 15
                }
            ]
        },
        {
            "name" : "Torus.002",
            "primitives" : [
                {
                    "attributes" : {
                        "POSITION" : 22,
                        "NORMAL" : 23,
                        "TEXCOORD_0" : 24
                    },
                    "indices" : 15
                }
            ]
        }
    ],
    "accessors" : [
        {
            "bufferView" : 0,
            "componentType" : 5126,
            "count" : 32,
            "max" : [
                0.5625,
                3.000466823577881,
                0.5625
            ],
            "min" : [
                -0.5625,
                3.000466823577881,
                -0.5625
            ],
            "type" : "VEC3"
        },
        {
            "bufferView" : 1,
            "componentType" : 5126,
            "count" : 32,
            "type" : "VEC3"
        },
        {
            "bufferView" : 2,
            "componentType" : 5126,
            "count" : 32,
            "type" : "VEC2"
        },
        {
            "bufferView" : 3,
            "componentType" : 5123,
            "count" : 90,
            "type" : "SCALAR"
        },
        {
            "bufferView" : 4,
            "componentType" : 5126,
            "count" : 32,
            "max" : [
                0.5625,
                -0.010738849639892578,
                0.5625
            ],
            "min" : [
                -0.5625,
                -0.010738849639892578,
                -0.5625
            ],
            "type" : "VEC3"
        },
        {
            "bufferView" : 5,
            "componentType" : 5126,
            "count" : 32,
            "type" : "VEC3"
        },
        {
            "bufferView" : 6,
            "componentType" : 5126,
            "count" : 32,
            "type" : "VEC2"
        },
        {
            "bufferView" : 7,
            "componentType" : 5123,
            "count" : 90,
            "type" : "SCALAR"
        },
        {
            "bufferView" : 8,
            "componentType" : 5126,
            "count" : 7644,
            "max" : [
                0.7138124108314514,
                3.00046706199646,
                0.7138124108314514
            ],
            "min" : [
                -0.7138124108314514,
                -0.010738564655184746,
                -0.7138124108314514
            ],
            "type" : "VEC3"
        },
        {
            "bufferView" : 9,
            "componentType" : 5126,
            "count" : 7644,
            "type" : "VEC3"
        },
        {
            "bufferView" : 10,
            "componentType" : 5126,
            "count" : 7644,
            "type" : "VEC2"
        },
        {
            "bufferView" : 11,
            "componentType" : 5123,
            "count" : 41472,
            "type" : "SCALAR"
        },
        {
            "bufferView" : 12,
            "componentType" : 5126,
            "count" : 637,
            "max" : [
                0.7138124108314514,
                0.00048724000225774944,
                0.7138124108314514
            ],
            "min" : [
                -0.7138124108314514,
                -0.2611991763114929,
                -0.7138124108314514
            ],
            "type" : "VEC3"
        },
        {
            "bufferView" : 13,
            "componentType" : 5126,
            "count" : 637,
            "type" : "VEC3"
        },
        {
            "bufferView" : 14,
            "componentType" : 5126,
            "count" : 637,
            "type" : "VEC2"
        },
        {
            "bufferView" : 15,
            "componentType" : 5123,
            "count" : 3456,
            "type" : "SCALAR"
        },
        {
            "bufferView" : 16,
            "componentType" : 5126,
            "count" : 637,
            "max" : [
                0.7138124108314514,
                0.009745821356773376,
                0.7138124108314514
            ],
            "min" : [
                -0.7138124108314514,
                -0.25194060802459717,
                -0.7138124108314514
            ],
            "type" : "VEC3"
        },
        {
            "bufferView" : 17,
            "componentType" : 5126,
            "count" : 637,
            "type" : "VEC3"
        },
        {
            "bufferView" : 18,
            "componentType" : 5126,
            "count" : 637,
            "type" : "VEC2"
        },
        {
            "bufferView" : 19,
            "componentType" : 5126,
            "count" : 637,
            "max" : [
                0.7138124108314514,
                0.000707477331161499,
                0.7138129472732544
            ],
            "min" : [
                -0.7138124108314514,
                -0.2609788179397583,
                -0.7138129472732544
            ],
            "type" : "VEC3"
        },
        {
            "bufferView" : 20,
            "componentType" : 5126,
            "count" : 637,
            "type" : "VEC3"
        },
        {
            "bufferView" : 21,
            "componentType" : 5126,
            "count" : 637,
            "type" : "VEC2"
        },
        {
            "bufferView" : 22,
            "componentType" : 5126,
            "count" : 637,
            "max" : [
                0.7138124108314514,
                0.0007075071334838867,
                0.7138124108314514
            ],
            "min" : [
                -0.7138124108314514,
                -0.2609788179397583,
                -0.7138124108314514
            ],
            "type" : "VEC3"
        },
        {
            "bufferView" : 23,
            "componentType" : 5126,
            "count" : 637,
            "type" : "VEC3"
        },
        {
            "bufferView" : 24,
            "componentType" : 5126,
            "count" : 637,
            "type" : "VEC2"
        },
        {
            "bufferView" : 25,
            "componentType" : 5126,
            "count" : 25,
            "max" : [
                1
            ],
            "min" : [
                0
            ],
            "type" : "SCALAR"
        },
        {
            "bufferView" : 26,
            "componentType" : 5126,
            "count" : 25,
            "type" : "VEC3"
        },
        {
            "bufferView" : 27,
            "componentType" : 5126,
            "count" : 25,
            "type" : "VEC3"
        },
        {
            "bufferView" : 28,
            "componentType" : 5126,
            "count" : 7,
            "max" : [
                0.25
            ],
            "min" : [
                0
            ],
            "type" : "SCALAR"
        },
        {
            "bufferView" : 29,
            "componentType" : 5126,
            "count" : 7,
            "type" : "VEC3"
        },
        {
            "bufferView" : 30,
            "componentType" : 5126,
            "count" : 25,
            "type" : "VEC3"
        },
        {
            "bufferView" : 31,
            "componentType" : 5126,
            "count" : 7,
            "max" : [
                0.5
            ],
            "min" : [
                0.25
            ],
            "type" : "SCALAR"
        },
        {
            "bufferView" : 32,
            "componentType" : 5126,
            "count" : 7,
            "type" : "VEC3"
        },
        {
            "bufferView" : 33,
            "componentType" : 5126,
            "count" : 25,
            "type" : "VEC3"
        },
        {
            "bufferView" : 34,
            "componentType" : 5126,
            "count" : 13,
            "max" : [
                1
            ],
            "min" : [
                0.5
            ],
            "type" : "SCALAR"
        },
        {
            "bufferView" : 35,
            "componentType" : 5126,
            "count" : 13,
            "type" : "VEC3"
        },
        {
            "bufferView" : 36,
            "componentType" : 5126,
            "count" : 7,
            "max" : [
                0.75
            ],
            "min" : [
                0.5
            ],
            "type" : "SCALAR"
        },
        {
            "bufferView" : 37,
            "componentType" : 5126,
            "count" : 7,
            "type" : "VEC3"
        },
        {
            "bufferView" : 38,
            "componentType" : 5126,
            "count" : 7,
            "max" : [
                1
            ],
            "min" : [
                0.75
            ],
            "type" : "SCALAR"
        },
        {
            "bufferView" : 39,
            "componentType" : 5126,
            "count" : 7,
            "type" : "VEC3"
        },
        {
            "bufferView" : 40,
            "componentType" : 5126,
            "count" : 25,
            "type" : "VEC3"
        }
    ],
    "bufferViews" : [
        {
            "buffer" : 0,
            "byteLength" : 384,
            "byteOffset" : 0
        },
        {
            "buffer" : 0,
            "byteLength" : 384,
            "byteOffset" : 384
        },
        {
            "buffer" : 0,
            "byteLength" : 256,
            "byteOffset" : 768
        },
        {
            "buffer" : 0,
            "byteLength" : 180,
            "byteOffset" : 1024
        },
        {
            "buffer" : 0,
            "byteLength" : 384,
            "byteOffset" : 1204
        },
        {
            "buffer" : 0,
            "byteLength" : 384,
            "byteOffset" : 1588
        },
        {
            "buffer" : 0,
            "byteLength" : 256,
            "byteOffset" : 1972
        },
        {
            "buffer" : 0,
            "byteLength" : 180,
            "byteOffset" : 2228
        },
        {
            "buffer" : 0,
            "byteLength" : 91728,
            "byteOffset" : 2408
        },
        {
            "buffer" : 0,
            "byteLength" : 91728,
            "byteOffset" : 94136
        },
        {
            "buffer" : 0,
            "byteLength" : 61152,
            "byteOffset" : 185864
        },
        {
            "buffer" : 0,
            "byteLength" : 82944,
            "byteOffset" : 247016
        },
        {
            "buffer" : 0,
            "byteLength" : 7644,
            "byteOffset" : 329960
        },
        {
            "buffer" : 0,
            "byteLength" : 7644,
            "byteOffset" : 337604
        },
        {
            "buffer" : 0,
            "byteLength" : 5096,
            "byteOffset" : 345248
        },
        {
            "buffer" : 0,
            "byteLength" : 6912,
            "byteOffset" : 350344
        },
        {
            "buffer" : 0,
            "byteLength" : 7644,
            "byteOffset" : 357256
        },
        {
            "buffer" : 0,
            "byteLength" : 7644,
            "byteOffset" : 364900
        },
        {
            "buffer" : 0,
            "byteLength" : 5096,
            "byteOffset" : 372544
        },
        {
            "buffer" : 0,
            "byteLength" : 7644,
            "byteOffset" : 377640
        },
        {
            "buffer" : 0,
            "byteLength" : 7644,
            "byteOffset" : 385284
        },
        {
            "buffer" : 0,
            "byteLength" : 5096,
            "byteOffset" : 392928
        },
        {
            "buffer" : 0,
            "byteLength" : 7644,
            "byteOffset" : 398024
        },
        {
            "buffer" : 0,
            "byteLength" : 7644,
            "byteOffset" : 405668
        },
        {
            "buffer" : 0,
            "byteLength" : 5096,
            "byteOffset" : 413312
        },
        {
            "buffer" : 0,
            "byteLength" : 100,
            "byteOffset" : 418408
        },
        {
            "buffer" : 0,
            "byteLength" : 300,
            "byteOffset" : 418508
        },
        {
            "buffer" : 0,
            "byteLength" : 300,
            "byteOffset" : 418808
        },
        {
            "buffer" : 0,
            "byteLength" : 28,
            "byteOffset" : 419108
        },
        {
            "buffer" : 0,
            "byteLength" : 84,
            "byteOffset" : 419136
        },
        {
            "buffer" : 0,
            "byteLength" : 300,
            "byteOffset" : 419220
        },
        {
            "buffer" : 0,
            "byteLength" : 28,
            "byteOffset" : 419520
        },
        {
            "buffer" : 0,
            "byteLength" : 84,
            "byteOffset" : 419548
        },
        {
            "buffer" : 0,
            "byteLength" : 300,
            "byteOffset" : 419632
        },
        {
            "buffer" : 0,
            "byteLength" : 52,
            "byteOffset" : 419932
        },
        {
            "buffer" : 0,
            "byteLength" : 156,
            "byteOffset" : 419984
        },
        {
            "buffer" : 0,
            "byteLength" : 28,
            "byteOffset" : 420140
        },
        {
            "buffer" : 0,
            "byteLength" : 84,
            "byteOffset" : 420168
        },
        {
            "buffer" : 0,
            "byteLength" : 28,
            "byteOffset" : 420252
        },
        {
            "buffer" : 0,
            "byteLength" : 84,
            "byteOffset" : 420280
        },
        {
            "buffer" : 0,
            "byteLength" : 300,
            "byteOffset" : 420364
        }
    ],
    "buffers" : [
        {
            "byteLength" : 420664,
            "uri" : "data:application/octet-stream;base64,"
        }
    ]
}
