{
    "asset" : {
        "generator" : "Khronos glTF Blender I/O v1.8.19",
        "version" : "2.0"
    },
    "extensionsUsed" : [
        "KHR_materials_clearcoat"
    ],
    "scene" : 0,
    "scenes" : [
        {
            "name" : "Scene",
            "nodes" : [
                5,
                6,
                7
            ]
        }
    ],
    "nodes" : [
        {
            "name" : "f_0",
            "translation" : [
                0,
                3,
                0
            ]
        },
        {
            "name" : "f_1",
            "rotation" : [
                0.7071068286895752,
                0.7071068286895752,
                0,
                3.680834765873442e-07
            ],
            "translation" : [
                1,
                2.5,
                0
            ]
        },
        {
            "name" : "f_2",
            "rotation" : [
                -0.5,
                -0.5,
                0.5,
                0.4999999701976776
            ],
            "translation" : [
                0,
                2.5,
                -1
            ]
        },
        {
            "name" : "f_3",
            "rotation" : [
                0,
                0,
                0.7071066498756409,
                0.70710688829422
            ],
            "translation" : [
                -1,
                2.5,
                0
            ]
        },
        {
            "name" : "f_4",
            "rotation" : [
                0.5,
                0.5,
                0.5,
                0.4999999701976776
            ],
            "translation" : [
                0,
                2.5,
                1
            ]
        },
        {
            "children" : [
                0,
                1,
                2,
                3,
                4
            ],
            "mesh" : 0,
            "name" : "u_head"
        },
        {
            "mesh" : 1,
            "name" : "joint",
            "scale" : [
                0.3124677240848541,
                0.3124677240848541,
                0.3124677240848541
            ]
        },
        {
            "mesh" : 2,
            "name" : "Torus"
        }
    ],
    "animations" : [
        {
            "channels" : [
                {
                    "sampler" : 0,
                    "target" : {
                        "node" : 5,
                        "path" : "rotation"
                    }
                }
            ],
            "name" : "u_head",
            "samplers" : [
                {
                    "input" : 12,
                    "interpolation" : "LINEAR",
                    "output" : 13
                }
            ]
        },
        {
            "channels" : [
                {
                    "sampler" : 0,
                    "target" : {
                        "node" : 7,
                        "path" : "rotation"
                    }
                }
            ],
            "name" : "Torus",
            "samplers" : [
                {
                    "input" : 12,
                    "interpolation" : "LINEAR",
                    "output" : 14
                }
            ]
        }
    ],
    "materials" : [
        {
            "doubleSided" : true,
            "name" : "baseMaterial",
            "pbrMetallicRoughness" : {
                "baseColorFactor" : [
                    0.6215937733650208,
                    1,
                    0.05724472180008888,
                    1
                ],
                "metallicFactor" : 0,
                "roughnessFactor" : 0.23636363446712494
            }
        },
        {
            "doubleSided" : true,
            "extensions" : {
                "KHR_materials_clearcoat" : {
                    "clearcoatFactor" : 0.527999997138977,
                    "clearcoatRoughnessFactor" : 0.07599999755620956
                }
            },
            "name" : "jointMaterial",
            "pbrMetallicRoughness" : {
                "metallicFactor" : 0,
                "roughnessFactor" : 0
            }
        }
    ],
    "meshes" : [
        {
            "name" : "Cube.003",
            "primitives" : [
                {
                    "attributes" : {
                        "POSITION" : 0,
                        "NORMAL" : 1,
                        "TEXCOORD_0" : 2
                    },
                    "indices" : 3,
                    "material" : 0
                }
            ]
        },
        {
            "name" : "Cube",
            "primitives" : [
                {
                    "attributes" : {
                        "POSITION" : 4,
                        "NORMAL" : 5,
                        "TEXCOORD_0" : 6
                    },
                    "indices" : 7,
                    "material" : 1
                }
            ]
        },
        {
            "name" : "Torus.001",
            "primitives" : [
                {
                    "attributes" : {
                        "POSITION" : 8,
                        "NORMAL" : 9,
                        "TEXCOORD_0" : 10
                    },
                    "indices" : 11,
                    "material" : 0
                }
            ]
        }
    ],
    "accessors" : [
        {
            "bufferView" : 0,
            "componentType" : 5126,
            "count" : 32,
            "max" : [
                0.5625,
                3.0082099437713623,
                0.5625
            ],
            "min" : [
                -0.5625,
                3.0082099437713623,
                -0.5625
            ],
            "type" : "VEC3"
        },
        {
            "bufferView" : 1,
            "componentType" : 5126,
            "count" : 32,
            "type" : "VEC3"
        },
        {
            "bufferView" : 2,
            "componentType" : 5126,
            "count" : 32,
            "type" : "VEC2"
        },
        {
            "bufferView" : 3,
            "componentType" : 5123,
            "count" : 90,
            "type" : "SCALAR"
        },
        {
            "bufferView" : 4,
            "componentType" : 5126,
            "count" : 259,
            "max" : [
                1.5995361804962158,
                1.5998445749282837,
                1.5995362997055054
            ],
            "min" : [
                -1.5995352268218994,
                -1.5998445749282837,
                -1.599535346031189
            ],
            "type" : "VEC3"
        },
        {
            "bufferView" : 5,
            "componentType" : 5126,
            "count" : 259,
            "type" : "VEC3"
        },
        {
            "bufferView" : 6,
            "componentType" : 5126,
            "count" : 259,
            "type" : "VEC2"
        },
        {
            "bufferView" : 7,
            "componentType" : 5123,
            "count" : 1296,
            "type" : "SCALAR"
        },
        {
            "bufferView" : 8,
            "componentType" : 5126,
            "count" : 7644,
            "max" : [
                1.1021230220794678,
                3.1521377563476562,
                0.9524154663085938
            ],
            "min" : [
                -0.9897545576095581,
                -0.014283508062362671,
                -0.9524154663085938
            ],
            "type" : "VEC3"
        },
        {
            "bufferView" : 9,
            "componentType" : 5126,
            "count" : 7644,
            "type" : "VEC3"
        },
        {
            "bufferView" : 10,
            "componentType" : 5126,
            "count" : 7644,
            "type" : "VEC2"
        },
        {
            "bufferView" : 11,
            "componentType" : 5123,
            "count" : 41472,
            "type" : "SCALAR"
        },
        {
            "bufferView" : 12,
            "componentType" : 5126,
            "count" : 25,
            "max" : [
                1
            ],
            "min" : [
                0
            ],
            "type" : "SCALAR"
        },
        {
            "bufferView" : 13,
            "componentType" : 5126,
            "count" : 25,
            "type" : "VEC4"
        },
        {
            "bufferView" : 14,
            "componentType" : 5126,
            "count" : 25,
            "type" : "VEC4"
        }
    ],
    "bufferViews" : [
        {
            "buffer" : 0,
            "byteLength" : 384,
            "byteOffset" : 0
        },
        {
            "buffer" : 0,
            "byteLength" : 384,
            "byteOffset" : 384
        },
        {
            "buffer" : 0,
            "byteLength" : 256,
            "byteOffset" : 768
        },
        {
            "buffer" : 0,
            "byteLength" : 180,
            "byteOffset" : 1024
        },
        {
            "buffer" : 0,
            "byteLength" : 3108,
            "byteOffset" : 1204
        },
        {
            "buffer" : 0,
            "byteLength" : 3108,
            "byteOffset" : 4312
        },
        {
            "buffer" : 0,
            "byteLength" : 2072,
            "byteOffset" : 7420
        },
        {
            "buffer" : 0,
            "byteLength" : 2592,
            "byteOffset" : 9492
        },
        {
            "buffer" : 0,
            "byteLength" : 91728,
            "byteOffset" : 12084
        },
        {
            "buffer" : 0,
            "byteLength" : 91728,
            "byteOffset" : 103812
        },
        {
            "buffer" : 0,
            "byteLength" : 61152,
            "byteOffset" : 195540
        },
        {
            "buffer" : 0,
            "byteLength" : 82944,
            "byteOffset" : 256692
        },
        {
            "buffer" : 0,
            "byteLength" : 100,
            "byteOffset" : 339636
        },
        {
            "buffer" : 0,
            "byteLength" : 400,
            "byteOffset" : 339736
        },
        {
            "buffer" : 0,
            "byteLength" : 400,
            "byteOffset" : 340136
        }
    ],
    "buffers" : [
        {
            "byteLength" : 340536,
            "uri" : "data:application/octet-stream;base64,"
        }
    ]
}
