{
    "asset" : {
        "generator" : "Khronos glTF Blender I/O v1.8.19",
        "version" : "2.0"
    },
    "extensionsUsed" : [
        "KHR_materials_clearcoat"
    ],
    "scene" : 0,
    "scenes" : [
        {
            "name" : "Scene",
            "nodes" : [
                3
            ]
        }
    ],
    "nodes" : [
        {
            "name" : "f_0",
            "rotation" : [
                0.36410585045814514,
                -0.6065972447395325,
                0.36371779441833496,
                0.6059505939483643
            ],
            "translation" : [
                -0.6391912698745728,
                0.9235127568244934,
                0
            ]
        },
        {
            "name" : "f_1",
            "rotation" : [
                0.4971373379230499,
                0.22206316888332367,
                -0.13310983777046204,
                0.8281450271606445
            ],
            "translation" : [
                0.31959548592567444,
                0.923512876033783,
                0.5535558462142944
            ]
        },
        {
            "name" : "f_2",
            "rotation" : [
                -0.13320110738277435,
                -0.8281857371330261,
                0.49711287021636963,
                -0.22191190719604492
            ],
            "translation" : [
                0.3195958137512207,
                0.9235128164291382,
                -0.5535560846328735
            ]
        },
        {
            "children" : [
                0,
                1,
                2
            ],
            "mesh" : 0,
            "name" : "joint_K"
        }
    ],
    "materials" : [
        {
            "doubleSided" : true,
            "extensions" : {
                "KHR_materials_clearcoat" : {
                    "clearcoatFactor" : 0.5276190638542175,
                    "clearcoatRoughnessFactor" : 0.07619047164916992
                }
            },
            "name" : "jointMaterial",
            "pbrMetallicRoughness" : {
                "metallicFactor" : 0,
                "roughnessFactor" : 0
            }
        }
    ],
    "meshes" : [
        {
            "name" : "joint_K",
            "primitives" : [
                {
                    "attributes" : {
                        "POSITION" : 0,
                        "NORMAL" : 1,
                        "TEXCOORD_0" : 2
                    },
                    "indices" : 3,
                    "material" : 0
                }
            ]
        }
    ],
    "accessors" : [
        {
            "bufferView" : 0,
            "componentType" : 5126,
            "count" : 96,
            "max" : [
                0.5353544354438782,
                0.9832767844200134,
                0.47543859481811523
            ],
            "min" : [
                -0.30861395597457886,
                -0.4705205261707306,
                -0.4754389822483063
            ],
            "type" : "VEC3"
        },
        {
            "bufferView" : 1,
            "componentType" : 5126,
            "count" : 96,
            "type" : "VEC3"
        },
        {
            "bufferView" : 2,
            "componentType" : 5126,
            "count" : 96,
            "type" : "VEC2"
        },
        {
            "bufferView" : 3,
            "componentType" : 5123,
            "count" : 564,
            "type" : "SCALAR"
        }
    ],
    "bufferViews" : [
        {
            "buffer" : 0,
            "byteLength" : 1152,
            "byteOffset" : 0
        },
        {
            "buffer" : 0,
            "byteLength" : 1152,
            "byteOffset" : 1152
        },
        {
            "buffer" : 0,
            "byteLength" : 768,
            "byteOffset" : 2304
        },
        {
            "buffer" : 0,
            "byteLength" : 1128,
            "byteOffset" : 3072
        }
    ],
    "buffers" : [
        {
            "byteLength" : 4200,
            "uri" : "data:application/octet-stream;base64,"
        }
    ]
}
